# xmcd
#
# Track frame offsets:
#	150
#	10467
#	32213
#	45225
#	58464
#	75984
#	94579
#	107422
#	119420
#	138388
#	150543
#	162456
#	176264
#
# Disc length: 2610 seconds
# Revision: 1
# Processed by: cddbd v1.5.2PL0 Copyright (c) Steve Scherf et al.
# Submitted via: dBpowerAMP V12.0
#
DISCID=9c0a300d
DTITLE=Balsam Range - Marching Home
DYEAR=2007
DGENRE=Country
TTITLE0=The Train's Ready
TTITLE1=Blue Mountain
TTITLE2=Calloway Country Flood
TTITLE3=I Hear a Sweet Voice Calling
TTITLE4=Burning Georgia Down
TTITLE5=Could've Fooled Me
TTITLE6=Goodbye Old Pal
TTITLE7=Cryin' Holy Unto the Lord
TTITLE8=Marching Home
TTITLE9=Come Back to Me in My Dreams
TTITLE10=I'm Just as Wrong
TTITLE11=The Boat of Love
TTITLE12=Travelin' This Lonesome Road
EXTD=
EXTT0=
EXTT1=
EXTT2=
EXTT3=
EXTT4=
EXTT5=
EXTT6=
EXTT7=
EXTT8=
EXTT9=
EXTT10=
EXTT11=
EXTT12=
PLAYORDER=
